<mxfile host="Electron" modified="2023-09-20T02:59:33.512Z" agent="Mozilla/5.0 (Windows NT 10.0; Win64; x64) AppleWebKit/537.36 (KHTML, like Gecko) draw.io/21.5.1 Chrome/112.0.5615.204 Electron/24.6.0 Safari/537.36" etag="TSgl2Ocs-daD_8Iu7W0K" version="21.5.1" type="device">
  <diagram name="Page-1" id="ux39bw9KEuxGHPLdO_Fz">
    <mxGraphModel dx="778" dy="831" grid="1" gridSize="10" guides="1" tooltips="1" connect="1" arrows="1" fold="1" page="1" pageScale="1" pageWidth="827" pageHeight="1169" math="0" shadow="0">
      <root>
        <mxCell id="0" />
        <mxCell id="1" parent="0" />
        <mxCell id="CFGikhlgEAPTiAroAKdz-1" value="" style="endArrow=none;html=1;rounded=0;" edge="1" parent="1">
          <mxGeometry width="50" height="50" relative="1" as="geometry">
            <mxPoint x="380" y="450" as="sourcePoint" />
            <mxPoint x="640" y="450" as="targetPoint" />
          </mxGeometry>
        </mxCell>
        <mxCell id="CFGikhlgEAPTiAroAKdz-3" value="On" style="shape=cube;whiteSpace=wrap;html=1;boundedLbl=1;backgroundOutline=1;darkOpacity=0.05;darkOpacity2=0.1;" vertex="1" parent="1">
          <mxGeometry x="390" y="400" width="75" height="50" as="geometry" />
        </mxCell>
        <mxCell id="CFGikhlgEAPTiAroAKdz-6" style="edgeStyle=orthogonalEdgeStyle;rounded=0;orthogonalLoop=1;jettySize=auto;html=1;endArrow=none;endFill=0;dashed=1;" edge="1" parent="1" target="CFGikhlgEAPTiAroAKdz-5">
          <mxGeometry relative="1" as="geometry">
            <mxPoint x="438" y="450" as="sourcePoint" />
          </mxGeometry>
        </mxCell>
        <mxCell id="CFGikhlgEAPTiAroAKdz-4" value="Under" style="shape=cube;whiteSpace=wrap;html=1;boundedLbl=1;backgroundOutline=1;darkOpacity=0.05;darkOpacity2=0.1;opacity=50;" vertex="1" parent="1">
          <mxGeometry x="400" y="450" width="75" height="50" as="geometry" />
        </mxCell>
        <mxCell id="CFGikhlgEAPTiAroAKdz-5" value="Under" style="shape=cube;whiteSpace=wrap;html=1;boundedLbl=1;backgroundOutline=1;darkOpacity=0.05;darkOpacity2=0.1;" vertex="1" parent="1">
          <mxGeometry x="400" y="560" width="75" height="50" as="geometry" />
        </mxCell>
        <mxCell id="CFGikhlgEAPTiAroAKdz-7" value="Above" style="shape=cube;whiteSpace=wrap;html=1;boundedLbl=1;backgroundOutline=1;darkOpacity=0.05;darkOpacity2=0.1;" vertex="1" parent="1">
          <mxGeometry x="540" y="380" width="75" height="50" as="geometry" />
        </mxCell>
        <mxCell id="CFGikhlgEAPTiAroAKdz-8" value="Below" style="shape=cube;whiteSpace=wrap;html=1;boundedLbl=1;backgroundOutline=1;darkOpacity=0.05;darkOpacity2=0.1;" vertex="1" parent="1">
          <mxGeometry x="540" y="470" width="75" height="50" as="geometry" />
        </mxCell>
      </root>
    </mxGraphModel>
  </diagram>
</mxfile>
